<svg xmlns="http://www.w3.org/2000/svg" width="148.9" height="141.5" viewBox="104.4 88.5 148.9 141.5">
<g id="HDL">
<path d="M 115.6,150.1 C 117.5,139.5 115.9,124.2 122.6,115.1 C 129.2,106.0 143.8,98.2 155.5,95.3 C 167.2,92.5 180.1,95.1 192.6,98.0 C 205.1,100.8 221.3,104.1 230.4,112.5 C 239.5,120.8 245.1,136.0 247.2,148.1 C 249.3,160.2 248.6,173.6 243.0,185.1 C 237.4,196.5 225.3,210.2 213.6,216.8 C 201.9,223.4 186.3,226.0 173.0,224.7 C 159.7,223.4 144.1,216.5 133.8,208.8 C 123.5,201.1 114.4,188.3 111.4,178.5 C 108.4,168.7 113.7,160.7 115.6,150.1 Z" fill="#FBE7E7" stroke="#6D143B" stroke-width="7" stroke-linejoin="round"/>
<path d="M 123.3,151.3 C 125.0,142.0 123.6,128.5 129.5,120.5 C 135.3,112.5 148.2,105.6 158.4,103.1 C 168.7,100.6 180.1,102.9 191.1,105.4 C 202.1,107.9 216.3,110.8 224.4,118.2 C 232.4,125.5 237.3,138.9 239.1,149.5 C 241.0,160.2 240.4,172.0 235.4,182.1 C 230.5,192.1 219.8,204.1 209.6,209.9 C 199.3,215.8 185.5,218.1 173.8,216.9 C 162.1,215.8 148.4,209.8 139.3,203.0 C 130.3,196.2 122.3,184.9 119.6,176.3 C 117.0,167.6 121.7,160.6 123.3,151.3 Z" fill="none" stroke="#6D143B" stroke-width="3.5" stroke-linejoin="round"/>
<path d="M 147.6,140.0 C 148.5,138.1 149.8,134.6 152.4,133.3 C 155.0,131.9 159.8,131.4 163.0,131.9 C 166.2,132.4 170.0,134.4 171.8,136.3 C 173.6,138.2 174.5,141.0 173.8,143.3 C 173.1,145.6 170.3,148.9 167.4,150.1 C 164.4,151.4 159.4,151.7 156.0,150.7 C 152.6,149.8 148.4,146.3 147.0,144.5 C 145.6,142.7 146.7,141.9 147.6,140.0 Z" fill="#FFD866" stroke="#6D143B" stroke-width="3.5" stroke-linejoin="round"/>
<path d="M 175.7,148.4 C 178.5,144.7 184.1,140.3 190.0,139.7 C 195.9,139.0 206.5,141.6 211.2,144.4 C 215.9,147.3 218.3,152.5 218.1,156.9 C 217.8,161.3 214.3,168.2 209.7,170.7 C 205.1,173.2 196.5,173.5 190.5,172.1 C 184.4,170.6 175.7,165.8 173.2,161.8 C 170.8,157.9 172.9,152.1 175.7,148.4 Z" fill="#77C9C8" stroke="#6D143B" stroke-width="3.5" stroke-linejoin="round"/>
<rect x="145.0" y="194.3" width="70.0" height="24.0" rx="12.0" fill="#F8B8CB" stroke="#6D143B" stroke-width="3.5"/>
</g>
</svg>